lift_the_feet coordinate motion generated from LLM joint_angles
version=1
nRows=18
nColumns=36
inDegrees=yes
endheader
time	pelvis_tilt	pelvis_list	pelvis_rotation	pelvis_tx	pelvis_ty	pelvis_tz	hip_flexion_r	hip_adduction_r	hip_rotation_r	knee_angle_r	knee_angle_r_beta	ankle_angle_r	subtalar_angle_r	mtp_angle_r	hip_flexion_l	hip_adduction_l	hip_rotation_l	knee_angle_l	knee_angle_l_beta	ankle_angle_l	subtalar_angle_l	mtp_angle_l	lumbar_extension	lumbar_bending	lumbar_rotation	arm_flex_r	arm_add_r	arm_rot_r	elbow_flex_r	pro_sup_r	arm_flex_l	arm_add_l	arm_rot_l	elbow_flex_l	pro_sup_l
0.500000	0.000000	0.000000	0.000000	0.000000	0.000000	0.000000	0.000000	0.000000	0.000000	10.000000	0.000000	20.000000	5.000000	10.000000	0.000000	0.000000	0.000000	10.000000	0.000000	20.000000	5.000000	10.000000	0.000000	0.000000	0.000000	0.000000	0.000000	0.000000	0.000000	0.000000	0.000000	0.000000	0.000000	0.000000	0.000000
0.506667	0.000000	0.000000	0.000000	0.000000	0.000000	0.000000	0.000000	0.000000	0.000000	9.997807	0.000000	19.995614	4.998903	9.997807	0.000000	0.000000	0.000000	9.997807	0.000000	19.995614	4.998903	9.997807	0.000000	0.000000	0.000000	0.000000	0.000000	0.000000	0.000000	0.000000	0.000000	0.000000	0.000000	0.000000	0.000000
0.513333	0.000000	0.000000	0.000000	0.000000	0.000000	0.000000	0.000000	0.000000	0.000000	9.991228	0.000000	19.982457	4.995614	9.991228	0.000000	0.000000	0.000000	9.991228	0.000000	19.982457	4.995614	9.991228	0.000000	0.000000	0.000000	0.000000	0.000000	0.000000	0.000000	0.000000	0.000000	0.000000	0.000000	0.000000	0.000000
0.520000	0.000000	0.000000	0.000000	0.000000	0.000000	0.000000	0.000000	0.000000	0.000000	9.980267	0.000000	19.960535	4.990134	9.980267	0.000000	0.000000	0.000000	9.980267	0.000000	19.960535	4.990134	9.980267	0.000000	0.000000	0.000000	0.000000	0.000000	0.000000	0.000000	0.000000	0.000000	0.000000	0.000000	0.000000	0.000000
0.526667	0.000000	0.000000	0.000000	0.000000	0.000000	0.000000	0.000000	0.000000	0.000000	9.964929	0.000000	19.929857	4.982464	9.964929	0.000000	0.000000	0.000000	9.964929	0.000000	19.929857	4.982464	9.964929	0.000000	0.000000	0.000000	0.000000	0.000000	0.000000	0.000000	0.000000	0.000000	0.000000	0.000000	0.000000	0.000000
0.533333	0.000000	0.000000	0.000000	0.000000	0.000000	0.000000	0.000000	0.000000	0.000000	9.945219	0.000000	19.890438	4.972609	9.945219	0.000000	0.000000	0.000000	9.945219	0.000000	19.890438	4.972609	9.945219	0.000000	0.000000	0.000000	0.000000	0.000000	0.000000	0.000000	0.000000	0.000000	0.000000	0.000000	0.000000	0.000000
0.540000	0.000000	0.000000	0.000000	0.000000	0.000000	0.000000	0.000000	0.000000	0.000000	9.921147	0.000000	19.842294	4.960574	9.921147	0.000000	0.000000	0.000000	9.921147	0.000000	19.842294	4.960574	9.921147	0.000000	0.000000	0.000000	0.000000	0.000000	0.000000	0.000000	0.000000	0.000000	0.000000	0.000000	0.000000	0.000000
0.546667	0.000000	0.000000	0.000000	0.000000	0.000000	0.000000	0.000000	0.000000	0.000000	9.892723	0.000000	19.785447	4.946362	9.892723	0.000000	0.000000	0.000000	9.892723	0.000000	19.785447	4.946362	9.892723	0.000000	0.000000	0.000000	0.000000	0.000000	0.000000	0.000000	0.000000	0.000000	0.000000	0.000000	0.000000	0.000000
0.553333	0.000000	0.000000	0.000000	0.000000	0.000000	0.000000	0.000000	0.000000	0.000000	9.859960	0.000000	19.719921	4.929980	9.859960	0.000000	0.000000	0.000000	9.859960	0.000000	19.719921	4.929980	9.859960	0.000000	0.000000	0.000000	0.000000	0.000000	0.000000	0.000000	0.000000	0.000000	0.000000	0.000000	0.000000	0.000000
0.560000	0.000000	0.000000	0.000000	0.000000	0.000000	0.000000	0.000000	0.000000	0.000000	9.822873	0.000000	19.645745	4.911436	9.822873	0.000000	0.000000	0.000000	9.822873	0.000000	19.645745	4.911436	9.822873	0.000000	0.000000	0.000000	0.000000	0.000000	0.000000	0.000000	0.000000	0.000000	0.000000	0.000000	0.000000	0.000000
0.566667	0.000000	0.000000	0.000000	0.000000	0.000000	0.000000	0.000000	0.000000	0.000000	9.781476	0.000000	19.562952	4.890738	9.781476	0.000000	0.000000	0.000000	9.781476	0.000000	19.562952	4.890738	9.781476	0.000000	0.000000	0.000000	0.000000	0.000000	0.000000	0.000000	0.000000	0.000000	0.000000	0.000000	0.000000	0.000000
0.573333	0.000000	0.000000	0.000000	0.000000	0.000000	0.000000	0.000000	0.000000	0.000000	9.735789	0.000000	19.471578	4.867895	9.735789	0.000000	0.000000	0.000000	9.735789	0.000000	19.471578	4.867895	9.735789	0.000000	0.000000	0.000000	0.000000	0.000000	0.000000	0.000000	0.000000	0.000000	0.000000	0.000000	0.000000	0.000000
0.580000	0.000000	0.000000	0.000000	0.000000	0.000000	0.000000	0.000000	0.000000	0.000000	9.685832	0.000000	19.371663	4.842916	9.685832	0.000000	0.000000	0.000000	9.685832	0.000000	19.371663	4.842916	9.685832	0.000000	0.000000	0.000000	0.000000	0.000000	0.000000	0.000000	0.000000	0.000000	0.000000	0.000000	0.000000	0.000000
0.586667	0.000000	0.000000	0.000000	0.000000	0.000000	0.000000	0.000000	0.000000	0.000000	9.631626	0.000000	19.263251	4.815813	9.631626	0.000000	0.000000	0.000000	9.631626	0.000000	19.263251	4.815813	9.631626	0.000000	0.000000	0.000000	0.000000	0.000000	0.000000	0.000000	0.000000	0.000000	0.000000	0.000000	0.000000	0.000000
0.593333	0.000000	0.000000	0.000000	0.000000	0.000000	0.000000	0.000000	0.000000	0.000000	9.573195	0.000000	19.146390	4.786597	9.573195	0.000000	0.000000	0.000000	9.573195	0.000000	19.146390	4.786597	9.573195	0.000000	0.000000	0.000000	0.000000	0.000000	0.000000	0.000000	0.000000	0.000000	0.000000	0.000000	0.000000	0.000000
0.600000	0.000000	0.000000	0.000000	0.000000	0.000000	0.000000	0.000000	0.000000	0.000000	9.510565	0.000000	19.021130	4.755283	9.510565	0.000000	0.000000	0.000000	9.510565	0.000000	19.021130	4.755283	9.510565	0.000000	0.000000	0.000000	0.000000	0.000000	0.000000	0.000000	0.000000	0.000000	0.000000	0.000000	0.000000	0.000000
0.606667	0.000000	0.000000	0.000000	0.000000	0.000000	0.000000	0.000000	0.000000	0.000000	9.443764	0.000000	18.887527	4.721882	9.443764	0.000000	0.000000	0.000000	9.443764	0.000000	18.887527	4.721882	9.443764	0.000000	0.000000	0.000000	0.000000	0.000000	0.000000	0.000000	0.000000	0.000000	0.000000	0.000000	0.000000	0.000000
0.613333	0.000000	0.000000	0.000000	0.000000	0.000000	0.000000	0.000000	0.000000	0.000000	9.372820	0.000000	18.745640	4.686410	9.372820	0.000000	0.000000	0.000000	9.372820	0.000000	18.745640	4.686410	9.372820	0.000000	0.000000	0.000000	0.000000	0.000000	0.000000	0.000000	0.000000	0.000000	0.000000	0.000000	0.000000	0.000000
